<?xml version="1.0" encoding="iso-8859-1"?>
<!-- Generator: Adobe Illustrator 19.0.0, SVG Export Plug-In . SVG Version: 6.00 Build 0)  -->
<svg version="1.1" id="Layer_1" xmlns="http://www.w3.org/2000/svg" xmlns:xlink="http://www.w3.org/1999/xlink" x="0px" y="0px"
	 viewBox="0 0 512 512" style="enable-background:new 0 0 512 512;" xml:space="preserve">
<polygon style="fill:#FFEA8A;" points="337.171,256 337.171,81.171 162.341,81.171 162.341,256 0,256 0,430.829 512,430.829 
	512,256 "/>
<polygon style="fill:#FFDB2D;" points="512,256 337.171,256 337.171,81.171 249.756,81.171 249.756,430.829 512,430.829 "/>
<path style="fill:#56545A;" d="M248.507,199.807c-13.772,0-24.976-11.204-24.976-24.976c0-13.772,11.204-24.976,24.976-24.976
	c13.772,0,24.976,11.204,24.976,24.976C273.483,188.603,262.279,199.807,248.507,199.807z"/>
<path style="fill:#88888F;" d="M98.654,369.642c-13.772,0-24.976-11.204-24.976-24.976s11.204-24.976,24.976-24.976
	s24.976,11.204,24.976,24.976C123.629,358.437,112.425,369.642,98.654,369.642z"/>
<path style="fill:#56545A;" d="M398.361,369.642c-13.772,0-24.976-11.204-24.976-24.976s11.204-24.976,24.976-24.976
	c13.772,0,24.976,11.204,24.976,24.976C423.337,358.437,412.133,369.642,398.361,369.642z"/>
<g>
</g>
<g>
</g>
<g>
</g>
<g>
</g>
<g>
</g>
<g>
</g>
<g>
</g>
<g>
</g>
<g>
</g>
<g>
</g>
<g>
</g>
<g>
</g>
<g>
</g>
<g>
</g>
<g>
</g>
</svg>
